<?xml version="1.0" encoding="UTF-8"?>
<svg version="1.1" xmlns="http://www.w3.org/2000/svg" width="368" height="74">
<path d="M0 0 C9.85723081 -0.11575743 19.71430043 -0.20464577 29.57207203 -0.25906086 C34.14928474 -0.28517521 38.7260331 -0.32060617 43.30297852 -0.37719727 C47.71854412 -0.43145246 52.1336626 -0.46140668 56.54953575 -0.47438622 C58.23573537 -0.48363788 59.92191001 -0.50170429 61.60791969 -0.52865028 C63.96677492 -0.56485657 66.32377377 -0.56994922 68.68286133 -0.56762695 C69.38273163 -0.58560333 70.08260193 -0.60357971 70.80368042 -0.62210083 C72.75398254 -0.60127258 72.75398254 -0.60127258 76 0 C78.41368232 2.88478364 79.03570604 4.20823488 78.86572266 7.97753906 C77.96440629 11.12426683 76.81290583 13.54477176 75.1484375 16.359375 C74.5512793 17.38071533 73.95412109 18.40205566 73.33886719 19.4543457 C72.69079102 20.54191162 72.04271484 21.62947754 71.375 22.75 C70.36117464 24.47766378 69.34736475 26.20533687 68.33447266 27.93354797 C67.27677678 29.73577763 66.21520266 31.5356837 65.15332031 33.33544922 C61.63986368 39.3013169 58.20068388 45.31020013 54.75 51.3125 C53.51631942 53.45482712 52.28199248 55.59678222 51.046875 57.73828125 C50.27102051 59.08466675 50.27102051 59.08466675 49.47949219 60.45825195 C48.00858327 62.98525405 46.50434482 65.49275863 45 68 C54.24 67.67 63.48 67.34 73 67 C69.35086989 60.96249646 69.35086989 60.96249646 65.66967773 54.94458008 C65.22052002 54.18556396 64.7713623 53.42654785 64.30859375 52.64453125 C63.60947876 51.48981323 63.60947876 51.48981323 62.89624023 50.31176758 C61.77678925 47.42424882 62.04010613 45.91319109 63 43 C63.99 42.01 63.99 42.01 65 41 C68.36191346 46.44391063 68.36191346 46.44391063 69.71459961 48.66040039 C71.40547937 51.42957662 73.11320373 54.17131653 74.90234375 56.87890625 C78.98463781 63.1704418 78.98463781 63.1704418 79.0625 67.375 C77.93241428 70.16697648 77.13653924 71.8693883 75 74 C71.85682678 74.52139282 71.85682678 74.52139282 67.92993164 74.54931641 C67.21415451 74.55953827 66.49837738 74.56976013 65.76091003 74.58029175 C63.39365235 74.60810345 61.02755792 74.6061697 58.66015625 74.6015625 C57.01492377 74.60933554 55.3696953 74.6180047 53.72447205 74.62753296 C50.27524815 74.64246147 46.82643364 74.64187259 43.37719727 74.63134766 C38.95691206 74.61975733 34.53830274 74.65361435 30.11829472 74.700037 C26.72015081 74.72950321 23.32241094 74.73125662 19.92416191 74.72501755 C18.29464841 74.72604448 16.66511244 74.73652995 15.03572273 74.75664139 C12.75586274 74.78132717 10.47927065 74.76782744 8.19946289 74.74462891 C6.9027919 74.74588776 5.60612091 74.74714661 4.27015686 74.7484436 C1 74 1 74 -1.44923401 71.10263062 C-3 68 -3 68 -3.01171875 65.61328125 C-1.59035464 61.94188128 0.23324818 58.600506 2.1875 55.1875 C2.62312256 54.41486816 3.05874512 53.64223633 3.50756836 52.84619141 C7.88398792 45.1204169 12.37575034 37.46042006 16.86450195 29.79956055 C21.67482927 21.58575602 26.3637645 13.31324985 31 5 C21.76 5.33 12.52 5.66 3 6 C6.64666864 11.99405695 6.64666864 11.99405695 10.33032227 17.96533203 C14.03518019 24.20544251 14.03518019 24.20544251 13.83984375 28.6171875 C13.56269531 29.40351563 13.28554688 30.18984375 13 31 C12.01 31.33 11.02 31.66 10 32 C9.71278076 31.48091064 9.42556152 30.96182129 9.12963867 30.42700195 C7.8165026 28.05499613 6.50201321 25.68374289 5.1875 23.3125 C4.73568359 22.49587891 4.28386719 21.67925781 3.81835938 20.83789062 C3.37685547 20.04189453 2.93535156 19.24589844 2.48046875 18.42578125 C2.0532251 17.65500244 1.62598145 16.88422363 1.18579102 16.09008789 C0.22315668 14.39333834 -0.79804817 12.72991483 -1.8359375 11.078125 C-3 9 -3 9 -2.8125 6.4375 C-2.05032266 4.15096797 -1.09884281 2.13889979 0 0 Z M45 5 C46.39759164 9.19277491 47.44832576 12.08669257 49.6015625 15.7421875 C50.09140625 16.58007812 50.58125 17.41796875 51.0859375 18.28125 C51.59382813 19.1371875 52.10171875 19.993125 52.625 20.875 C53.140625 21.75414063 53.65625 22.63328125 54.1875 23.5390625 C55.45335573 25.6957056 56.72428407 27.84917988 58 30 C61.50738905 28.83087032 61.68864397 28.29561065 63.375 25.17578125 C63.80296875 24.39396484 64.2309375 23.61214844 64.671875 22.80664062 C65.11015625 21.98357422 65.5484375 21.16050781 66 20.3125 C66.43828125 19.50876953 66.8765625 18.70503906 67.328125 17.87695312 C69.63888987 13.62083049 71.83279908 9.33440184 74 5 C64.43 5 54.86 5 45 5 Z M34 12 C31.31563989 15.61658191 28.96052435 19.44018103 26.5625 23.25 C25.84900391 24.29414063 25.13550781 25.33828125 24.40039062 26.4140625 C22.4031672 29.63988698 20.93851291 32.31874471 20 36 C21.11718108 40.61364831 23.35288996 44.10209627 26 48 C26.7919415 49.40404153 27.57266486 50.81454443 28.3359375 52.234375 C29.01218495 53.40823849 29.69173477 54.58020739 30.375 55.75 C30.72949219 56.36359375 31.08398438 56.9771875 31.44921875 57.609375 C32.29637037 59.07471834 33.14768564 60.53765353 34 62 C34.33 62 34.66 62 35 62 C35 45.5 35 29 35 12 C34.67 12 34.34 12 34 12 Z M41 12 C41 28.5 41 45 41 62 C51.57057325 48.98190185 51.57057325 48.98190185 55.73046875 33.6640625 C54.08952057 30.78049656 52.17277207 28.50647427 50 26 C48.43948981 23.49286178 47.03901755 20.90432547 45.625 18.3125 C44.93286208 17.09844507 44.23781747 15.8860398 43.5390625 14.67578125 C42.77722656 13.35126953 42.77722656 13.35126953 42 12 C41.67 12 41.34 12 41 12 Z M16 43 C14.00342538 46.3980456 12.00967034 49.79772724 10.01855469 53.19897461 C9.00606246 54.92715225 7.99131897 56.65401029 6.9765625 58.38085938 C6.02910156 60.00024414 6.02910156 60.00024414 5.0625 61.65234375 C4.18271484 63.15269165 4.18271484 63.15269165 3.28515625 64.68334961 C1.91914951 66.70420212 1.91914951 66.70420212 2 68 C11.57 68 21.14 68 31 68 C28.90143813 62.75359532 26.32712656 58.1225928 23.5 53.25 C23.00113281 52.37472656 22.50226562 51.49945313 21.98828125 50.59765625 C21.50746094 49.76621094 21.02664062 48.93476562 20.53125 48.078125 C20.09361328 47.31918945 19.65597656 46.56025391 19.20507812 45.77832031 C18.11116589 43.85160109 18.11116589 43.85160109 16 43 Z " fill="#DBA31A" transform="translate(3,0)"/>
<path d="M0 0 C2.64 0 5.28 0 8 0 C10.64 4.62 13.28 9.24 16 14 C18.68820908 11.31179092 20.24286437 9.11908302 22.125 5.875 C24.91666667 1.08333333 24.91666667 1.08333333 26 0 C27.98 0 29.96 0 32 0 C32 8.25 32 16.5 32 25 C30.02 25 28.04 25 26 25 C25.67 21.37 25.34 17.74 25 14 C23.35 16.97 21.7 19.94 20 23 C17.375 23.625 17.375 23.625 14 23 C11.53401305 19.83420595 9.87851142 16.57811699 8 13 C7.67 16.96 7.34 20.92 7 25 C5.02 25 3.04 25 1 25 C0.67 16.75 0.34 8.5 0 0 Z " fill="#2A2C41" transform="translate(238,12)"/>
<path d="M0 0 C7 0 7 0 9.07983398 1.28515625 C9.62969971 1.87167969 10.17956543 2.45820313 10.74609375 3.0625 C11.35517578 3.69414062 11.96425781 4.32578125 12.59179688 4.9765625 C13.20087891 5.64429688 13.80996094 6.31203125 14.4375 7 C15.07365234 7.66773438 15.70980469 8.33546875 16.36523438 9.0234375 C17.92652181 10.66689796 19.46554138 12.33146247 21 14 C21.33 9.38 21.66 4.76 22 0 C24.31 0 26.62 0 29 0 C29 8.25 29 16.5 29 25 C22 25 22 25 19.92016602 23.71484375 C19.37030029 23.12832031 18.82043457 22.54179688 18.25390625 21.9375 C17.64482422 21.30585937 17.03574219 20.67421875 16.40820312 20.0234375 C15.79912109 19.35570313 15.19003906 18.68796875 14.5625 18 C13.92634766 17.33226563 13.29019531 16.66453125 12.63476562 15.9765625 C11.07347819 14.33310204 9.53445862 12.66853753 8 11 C7.67 15.62 7.34 20.24 7 25 C4.69 25 2.38 25 0 25 C0 16.75 0 8.5 0 0 Z " fill="#2A2C41" transform="translate(204,12)"/>
<path d="M0 0 C1.03125 0.00322266 2.0625 0.00644531 3.125 0.00976562 C4.74535156 0.02233398 4.74535156 0.02233398 6.3984375 0.03515625 C8.03039062 0.04192383 8.03039062 0.04192383 9.6953125 0.04882812 C12.38807539 0.06063849 15.08072938 0.07710847 17.7734375 0.09765625 C17.4434375 1.74765625 17.1134375 3.39765625 16.7734375 5.09765625 C10.5034375 5.09765625 4.2334375 5.09765625 -2.2265625 5.09765625 C-2.2265625 10.04765625 -2.2265625 14.99765625 -2.2265625 20.09765625 C2.7234375 20.09765625 7.6734375 20.09765625 12.7734375 20.09765625 C12.7734375 18.44765625 12.7734375 16.79765625 12.7734375 15.09765625 C10.1334375 15.42765625 7.4934375 15.75765625 4.7734375 16.09765625 C4.7734375 14.44765625 4.7734375 12.79765625 4.7734375 11.09765625 C9.3934375 11.09765625 14.0134375 11.09765625 18.7734375 11.09765625 C19.65234375 21.15625 19.65234375 21.15625 19.7734375 24.09765625 C17.24719516 26.62389859 10.29565851 25.28320607 6.8984375 25.28515625 C5.22587891 25.30352539 5.22587891 25.30352539 3.51953125 25.32226562 C2.45089844 25.32419922 1.38226563 25.32613281 0.28125 25.328125 C-0.70214355 25.33223389 -1.68553711 25.33634277 -2.69873047 25.34057617 C-5.2265625 25.09765625 -5.2265625 25.09765625 -8.2265625 23.09765625 C-9.40488871 19.56267763 -9.41053559 16.33872554 -9.4140625 12.66015625 C-9.42824219 11.34144531 -9.44242188 10.02273437 -9.45703125 8.6640625 C-9.2483631 5.4350113 -9.05512353 3.70896972 -7.2265625 1.09765625 C-4.66933021 -0.1809599 -2.85919148 -0.01570984 0 0 Z " fill="#2A2C41" transform="translate(179.2265625,11.90234375)"/>
<path d="M0 0 C8 0 8 0 10.19335938 1.37695312 C10.73798828 2.00537109 11.28261719 2.63378906 11.84375 3.28125 C12.75253906 4.29638672 12.75253906 4.29638672 13.6796875 5.33203125 C14.28039062 6.04746094 14.88109375 6.76289063 15.5 7.5 C16.44746094 8.57314453 16.44746094 8.57314453 17.4140625 9.66796875 C18.96276774 11.42786107 20.48419582 13.2116917 22 15 C22.33 10.05 22.66 5.1 23 0 C24.98 0 26.96 0 29 0 C29 8.25 29 16.5 29 25 C22 25 22 25 19.92016602 23.62304688 C19.37030029 22.99462891 18.82043457 22.36621094 18.25390625 21.71875 C17.64482422 21.04199219 17.03574219 20.36523438 16.40820312 19.66796875 C15.79912109 18.95253906 15.19003906 18.23710937 14.5625 17.5 C13.92634766 16.78457031 13.29019531 16.06914062 12.63476562 15.33203125 C11.07241835 13.56998545 9.53379951 11.78695089 8 10 C7.67 14.95 7.34 19.9 7 25 C5.02 25 3.04 25 1 25 C0.67 16.75 0.34 8.5 0 0 Z " fill="#2A2C41" transform="translate(308,12)"/>
<path d="M0 0 C8.91 0 17.82 0 27 0 C27 1.65 27 3.3 27 5 C20.4 5 13.8 5 7 5 C7 6.65 7 8.3 7 10 C11.95 10 16.9 10 22 10 C22 11.32 22 12.64 22 14 C17.05 14 12.1 14 7 14 C7 15.98 7 17.96 7 20 C13.6 20 20.2 20 27 20 C27.66 21.65 28.32 23.3 29 25 C19.43 25 9.86 25 0 25 C0 16.75 0 8.5 0 0 Z " fill="#2A2C41" transform="translate(276,12)"/>
<path d="M0 0 C3.3 0 6.6 0 10 0 C14.48445738 8.16345397 18.85423558 16.20427711 22 25 C19.36 25 16.72 25 14 25 C13.505 22.525 13.505 22.525 13 20 C10.53901884 20.05987789 8.08421588 20.14678474 5.625 20.25 C4.92632812 20.26417969 4.22765625 20.27835938 3.5078125 20.29296875 C1.22282354 20.36035782 1.22282354 20.36035782 -2 21 C-3.56483494 22.91388341 -3.56483494 22.91388341 -4 25 C-6.31 25 -8.62 25 -11 25 C-10.40541585 21.34430318 -9.39426489 18.43178554 -7.71484375 15.13671875 C-7.26689453 14.25048828 -6.81894531 13.36425781 -6.35742188 12.45117188 C-5.88884766 11.53916016 -5.42027344 10.62714844 -4.9375 9.6875 C-4.46505859 8.75615234 -3.99261719 7.82480469 -3.50585938 6.86523438 C-2.34265147 4.57406729 -1.17204557 2.28665878 0 0 Z M5 5 C3.35 8.3 1.7 11.6 0 15 C3.3 15 6.6 15 10 15 C8.77263971 10.84585747 7.672336 8.56311466 5 5 Z " fill="#2A2C41" transform="translate(105,12)"/>
<path d="M0 0 C2.31 0 4.62 0 7 0 C7 6.6 7 13.2 7 20 C12.61 20 18.22 20 24 20 C24.33 21.65 24.66 23.3 25 25 C16.75 25 8.5 25 0 25 C0 16.75 0 8.5 0 0 Z " fill="#2A2C41" transform="translate(130,12)"/>
<path d="M0 0 C9.24 0 18.48 0 28 0 C28 1.32 28 2.64 28 4 C24.37 4 20.74 4 17 4 C17 10.93 17 17.86 17 25 C15.02 25 13.04 25 11 25 C11 18.07 11 11.14 11 4 C7.37 4 3.74 4 0 4 C0 2.68 0 1.36 0 0 Z " fill="#2A2C41" transform="translate(340,12)"/>
<path d="M0 0 C2.31 0 4.62 0 7 0 C7 8.25 7 16.5 7 25 C4.69 25 2.38 25 0 25 C0 16.75 0 8.5 0 0 Z " fill="#2A2B41" transform="translate(158,12)"/>
<path d="M0 0 C6.6 0 13.2 0 20 0 C20 1.32 20 2.64 20 4 C17.69 4 15.38 4 13 4 C13 8.95 13 13.9 13 19 C11.35 19 9.7 19 8 19 C8 14.05 8 9.1 8 4 C5.36 4 2.72 4 0 4 C0 2.68 0 1.36 0 0 Z " fill="#2A2C41" transform="translate(102,44)"/>
<path d="M0 0 C1.65 0 3.3 0 5 0 C5 6.27 5 12.54 5 19 C3.35 19 1.7 19 0 19 C0 12.73 0 6.46 0 0 Z " fill="#2A2B41" transform="translate(95,44)"/>
</svg>
